Coordinates
version=1
nRows=7
nColumns=42
inDegrees=yes

Units are S.I. units (second, meters, Newtons, ...)
If the header above contains a line with 'inDegrees', this indicates whether rotational values are in degrees (yes) or radians (no).

endheader
time	pelvis_tilt	pelvis_list	pelvis_rotation	pelvis_tx	pelvis_ty	pelvis_tz	hip_flexion_r	hip_adduction_r	hip_rotation_r	knee_angle_r	knee_adduction_r	knee_angle_r_beta	ankle_angle_r	subtalar_angle_r	mtp_angle_r	hip_flexion_l	hip_adduction_l	hip_rotation_l	knee_angle_l	knee_adduction_l	knee_angle_l_beta	ankle_angle_l	subtalar_angle_l	mtp_angle_l	lumbar_extension	lumbar_bending	lumbar_rotation	arm_flex_r	arm_add_r	arm_rot_r	elbow_flex_r	pro_sup_r	wrist_flex_r	wrist_dev_r	arm_flex_l	arm_add_l	arm_rot_l	elbow_flex_l	pro_sup_l	wrist_flex_l	wrist_dev_l
      2.81000000	     12.46886002	      5.21738410	      2.54589748	      0.32419672	      0.97940948	      0.39873974	     -7.22642207	     -3.71702764	    -29.44406003	     30.48166856	    -10.64764889	      0.53200548	     26.11651350	     21.74816028	     -7.50075978	     24.26223710	     -1.61224718	    -10.31117057	     17.62828766	     -3.94374874	      0.30767166	      3.04900072	      6.93748735	     -7.50075978	    -32.79281411	     -6.66384614	      1.60979088	     25.02926943	    -23.21350222	     14.73037053	     45.26624018	     90.00000001	      0.00000000	      0.00000000	    -11.37655829	    -15.43548396	     -3.94800167	     45.96414977	     90.00000001	      0.00000000	      0.00000000
      2.82000000	     12.76607049	      4.98143905	      2.34588827	      0.33126203	      0.97819723	      0.39844121	     -7.96942496	     -3.43032074	    -29.28760141	     30.49134427	    -10.76862180	      0.53217435	     26.89946423	     21.76323077	     -7.50075319	     24.09958115	     -1.73941439	    -10.11282562	     17.66835811	     -3.85835590	      0.30837102	      3.18249145	      6.97885630	     -7.50075319	    -32.81184532	     -6.52727005	      1.84537653	     25.47438321	    -23.16141238	     14.81897306	     45.52014286	     90.00000001	      0.00000000	      0.00000000	    -11.81078421	    -15.23579832	     -4.08163010	     45.99072057	     90.00000001	      0.00000000	      0.00000000
      2.83000000	     12.82010979	      4.88214018	      2.12713590	      0.33841309	      0.97674481	      0.39809965	     -8.41495084	     -3.38768072	    -29.26342235	     30.57588705	    -10.87680219	      0.53364990	     27.02454625	     21.75517376	     -7.50075205	     24.14050275	     -1.67988860	     -9.97476446	     17.74210241	     -3.86409786	      0.30965810	      3.17059945	      7.00094411	     -7.50075205	    -32.58090671	     -6.60122136	      2.19325861	     25.71082972	    -23.10286729	     14.83106424	     45.64357527	     90.00000001	      0.00000000	      0.00000000	    -12.15383803	    -15.11212908	     -4.09110332	     45.90612813	     90.00000001	      0.00000000	      0.00000000
      2.84000000	     13.05591195	      4.75881161	      1.93424104	      0.34568489	      0.97560207	      0.39769743	     -9.17013620	     -3.20834354	    -28.88231458	     30.52183717	    -10.88899518	      0.53270655	     27.99976913	     21.74419877	     -7.50074026	     23.88694532	     -1.67407566	     -9.70367412	     17.80976445	     -3.73669827	      0.31083903	      3.29501968	      6.87164532	     -7.50074026	    -32.58355923	     -6.62461210	      2.33835269	     25.97952595	    -23.08894201	     14.99963529	     46.08091048	     90.00000001	      0.00000000	      0.00000000	    -12.67857511	    -14.86687224	     -4.41703992	     46.05676756	     90.00000001	      0.00000000	      0.00000000
      2.85000000	     13.08007101	      4.63668675	      1.64307548	      0.35296039	      0.97420606	      0.39727800	     -9.57378496	     -3.19623852	    -28.83599553	     30.64038382	    -10.99002845	      0.53477558	     28.08853223	     21.74225123	     -7.50073836	     23.80901227	     -1.67503249	     -9.57226108	     17.88906456	     -3.69505644	      0.31222308	      3.26163454	      6.87187573	     -7.50073836	    -32.32008418	     -6.67169726	      2.64282604	     26.27195673	    -22.95470471	     15.03229922	     46.28721871	     90.00000001	      0.00000000	      0.00000000	    -12.99108339	    -14.74140128	     -4.43946245	     45.97657441	     90.00000001	      0.00000000	      0.00000000
      2.86000000	     13.06278855	      4.53128836	      1.39013026	      0.36033635	      0.97283775	      0.39677542	     -9.97759554	     -3.19184118	    -28.78465362	     30.70839967	    -11.06167001	      0.53596268	     28.19331959	     21.75232217	     -7.50073724	     23.71595660	     -1.64060430	     -9.44965722	     17.95965464	     -3.66278727	      0.31345511	      3.24171959	      6.87650308	     -7.50073724	    -32.03294965	     -6.75583431	      2.90993331	     26.49837763	    -22.84014844	     15.05904023	     46.46391555	     90.00000001	      0.00000000	      0.00000000	    -13.29004575	    -14.61627659	     -4.44570904	     45.89080661	     90.00000001	      0.00000000	      0.00000000
      2.87000000	     13.22755550	      4.44878884	      1.11333133	      0.36782813	      0.97181746	      0.39617479	    -10.69513433	     -3.17912793	    -28.34621792	     30.65733518	    -10.93908259	      0.53507144	     28.90682429	     21.94031095	     -7.50072681	     23.24392687	     -1.58442135	     -9.16567880	     17.83888872	     -3.53481741	      0.31134734	      3.29546671	      6.65582956	     -7.50072681	    -31.98297147	     -6.83868832	      2.97979854	     26.73576168	    -22.76730077	     15.31162120	     47.19375826	     90.00000001	      0.00000000	      0.00000000	    -13.72151969	    -14.37585677	     -4.73790363	     45.89167682	     90.00000001	      0.00000000	      0.00000000
